<svg xmlns="http://www.w3.org/2000/svg" xmlns:xlink="http://www.w3.org/1999/xlink" width="86" height="86" viewBox="0 0 86 86">
  <defs>
    <clipPath id="clip-path">
      <rect id="Прямоугольник_137" data-name="Прямоугольник 137" width="86" height="86" fill="#e9ecf1" stroke="#707070" stroke-width="1"/>
    </clipPath>
  </defs>
  <g id="Группа_масок_25" data-name="Группа масок 25" clip-path="url(#clip-path)">
    <g id="_3d-buildings" data-name="3d-buildings" transform="translate(0 3.751)">
      <path id="Контур_388" data-name="Контур 388" d="M85.048,34.713,72.867,30.971V21.9a1.348,1.348,0,0,0-.754-1.213L39.218,4.405a.077.077,0,0,0-.026,0,1.309,1.309,0,0,0-.664-.126,1.346,1.346,0,0,0-.694.24h0L14.374,21.245a1.353,1.353,0,0,0-.569,1.1v11.68l-4.359-.52-.038.006a1.7,1.7,0,0,0-.313.007,1.489,1.489,0,0,0-.344.091l-.013,0L.805,37.129A1.352,1.352,0,0,0,0,38.366V61a1.349,1.349,0,0,0,.7,1.186L8.653,66.54a1.365,1.365,0,0,0,.459.152,1.392,1.392,0,0,0,.386,0l4.3-.626V68.56a1.356,1.356,0,0,0,.7,1.187L37.962,82.6a1.467,1.467,0,0,0,.6.168,1.488,1.488,0,0,0,.518-.082v-.007h.007l32.9-12.507,13.138-5A1.353,1.353,0,0,0,86,63.914V36.009A1.341,1.341,0,0,0,85.048,34.713ZM3.775,55.371a.446.446,0,0,1-.179.359.448.448,0,0,1-.393.077L1.7,55.387a.452.452,0,0,1-.331-.435v-4.2a.452.452,0,0,1,.148-.335.444.444,0,0,1,.346-.113l1.506.146a.452.452,0,0,1,.408.448v4.47h0Zm0-8.939a.452.452,0,0,1-.415.45l-1.506.125H1.817a.449.449,0,0,1-.452-.45v-4.2a.45.45,0,0,1,.337-.435l1.506-.4a.452.452,0,0,1,.39.081.444.444,0,0,1,.176.355v4.47h0Zm4.4,10.163a.449.449,0,0,1-.45.45.46.46,0,0,1-.121-.016l-2.064-.575a.45.45,0,0,1-.331-.434V51.129a.451.451,0,0,1,.148-.335.445.445,0,0,1,.348-.113l2.064.2a.449.449,0,0,1,.408.448v5.265h0Zm0-10.525a.454.454,0,0,1-.414.45L5.7,46.69H5.662a.452.452,0,0,1-.452-.452V41.348a.454.454,0,0,1,.337-.437l2.066-.542a.445.445,0,0,1,.39.079.455.455,0,0,1,.176.357Zm11.3,13.662a.453.453,0,0,1-.45.452.435.435,0,0,1-.121-.016l-2.662-.739a.452.452,0,0,1-.331-.434v-6.82a.449.449,0,0,1,.148-.335.46.46,0,0,1,.346-.117l2.662.262a.449.449,0,0,1,.408.448v7.3Zm0-14.6a.449.449,0,0,1-.414.448L16.4,45.8a.22.22,0,0,1-.037,0,.448.448,0,0,1-.306-.119.453.453,0,0,1-.146-.333v-6.82a.45.45,0,0,1,.337-.435l2.662-.7a.453.453,0,0,1,.565.436v7.3Zm0-14.6a.45.45,0,0,1-.267.414l-2.662,1.178a.457.457,0,0,1-.183.04.462.462,0,0,1-.247-.073.454.454,0,0,1-.2-.379V24.9a.452.452,0,0,1,.212-.383l2.662-1.658a.45.45,0,0,1,.69.383v7.3ZM26.11,61.574a.453.453,0,0,1-.45.452.46.46,0,0,1-.121-.016l-3.566-.992a.45.45,0,0,1-.331-.434V52.732a.452.452,0,0,1,.148-.335.459.459,0,0,1,.346-.113l3.568.348a.451.451,0,0,1,.406.448v8.494Zm0-16.987a.451.451,0,0,1-.414.45l-3.566.295-.038,0a.455.455,0,0,1-.452-.454V37.03a.45.45,0,0,1,.337-.435l3.566-.939a.444.444,0,0,1,.39.079.449.449,0,0,1,.176.357v8.5h0Zm0-16.986a.45.45,0,0,1-.267.414l-3.566,1.579a.426.426,0,0,1-.183.038.451.451,0,0,1-.45-.452V21.33a.451.451,0,0,1,.212-.382l3.566-2.223a.45.45,0,0,1,.69.382V27.6Zm9.23,36.537a.488.488,0,0,1-.146.353.633.633,0,0,1-.463.166h0a30.927,30.927,0,0,1-5.021-1.489.449.449,0,0,1-.3-.425V53.491a.457.457,0,0,1,.146-.335.45.45,0,0,1,.348-.113l5.027.49a.453.453,0,0,1,.408.448C35.34,54.08,35.337,63.7,35.34,64.137Zm0-20.312a.451.451,0,0,1-.415.448l-5.027.415-.037,0a.455.455,0,0,1-.452-.454V34.986a.45.45,0,0,1,.337-.435l5.027-1.321a.445.445,0,0,1,.39.079.45.45,0,0,1,.176.357V43.826h0Zm0-20.313a.45.45,0,0,1-.269.412l-5.027,2.227a.426.426,0,0,1-.183.038.463.463,0,0,1-.247-.073.452.452,0,0,1-.2-.379v-9.25a.452.452,0,0,1,.212-.384l5.027-3.131a.45.45,0,0,1,.69.382V23.513ZM55.322,18.45a.452.452,0,0,1,.63-.415l5.365,2.32a.453.453,0,0,1,.273.415v8.013a.454.454,0,0,1-.45.452.457.457,0,0,1-.132-.02l-5.365-1.649a.451.451,0,0,1-.318-.43V18.45h0Zm0,17.367a.449.449,0,0,1,.531-.443l5.367.977a.451.451,0,0,1,.37.443v8.088a.452.452,0,0,1-.452.452l-.031,0-5.365-.382a.45.45,0,0,1-.419-.448V35.817ZM41.355,12.411a.45.45,0,0,1,.63-.414l7.621,3.3a.453.453,0,0,1,.273.415v9.477a.454.454,0,0,1-.45.452.481.481,0,0,1-.134-.02l-7.621-2.342a.447.447,0,0,1-.318-.43V12.411Zm0,31.29V33.271a.449.449,0,0,1,.531-.443l7.621,1.389a.454.454,0,0,1,.371.445v9.477a.452.452,0,0,1-.452.452.115.115,0,0,1-.026,0l-7.621-.435A.454.454,0,0,1,41.355,43.7ZM56.224,74.9a.452.452,0,0,1-.291.421l-9.975,3.791a.44.44,0,0,1-.159.029.46.46,0,0,1-.256-.079.449.449,0,0,1-.194-.371V53.859a.451.451,0,0,1,.421-.45l9.975-.675a.451.451,0,0,1,.338.121.445.445,0,0,1,.143.329V74.9Zm12.02-4.571a.447.447,0,0,1-.291.421L61.3,73.276a.447.447,0,0,1-.161.031.465.465,0,0,1-.256-.08.454.454,0,0,1-.194-.371V52.821a.451.451,0,0,1,.421-.45l6.655-.45a.448.448,0,0,1,.481.448ZM70.168,45.3a.452.452,0,0,1-.452.452H69.69l-3.982-.229a.451.451,0,0,1-.425-.45v-7.44a.449.449,0,0,1,.532-.445l3.98.726a.451.451,0,0,1,.372.443V45.3Zm0-13.881a.454.454,0,0,1-.45.452.426.426,0,0,1-.134-.022L65.6,30.625a.451.451,0,0,1-.318-.43v-7.44a.453.453,0,0,1,.2-.377.448.448,0,0,1,.426-.037l3.982,1.72a.453.453,0,0,1,.273.415v6.941h0Zm7.956,26.231a.451.451,0,0,1-.366.443l-2.893.558a.452.452,0,0,1-.534-.443V51.9a.451.451,0,0,1,.421-.45l2.893-.2a.46.46,0,0,1,.338.121.445.445,0,0,1,.143.329v5.945h0Zm0-11.892a.452.452,0,0,1-.452.45h-.026l-2.893-.166a.451.451,0,0,1-.424-.45V39.282a.451.451,0,0,1,.161-.346.458.458,0,0,1,.37-.1l2.891.527a.453.453,0,0,1,.371.445v5.947ZM83.015,56.7a.451.451,0,0,1-.366.443l-2.315.446a.452.452,0,0,1-.534-.443V51.526a.451.451,0,0,1,.421-.448l2.313-.157a.46.46,0,0,1,.339.119.453.453,0,0,1,.143.331V56.7Zm0-10.67a.457.457,0,0,1-.141.329.452.452,0,0,1-.309.123.124.124,0,0,1-.026,0l-2.313-.132a.45.45,0,0,1-.425-.45V40.351a.452.452,0,0,1,.518-.448l2.315.35a.45.45,0,0,1,.383.447v5.336h0Z" transform="translate(0 -4.275)" fill="#26263e"/>
    </g>
  </g>
</svg>
