<svg xmlns="http://www.w3.org/2000/svg" width="76.091" height="77.782" viewBox="0 0 76.091 77.782">
  <g id="Сгруппировать_452" data-name="Сгруппировать 452" transform="translate(-408.017 -1348.218)">
    <g id="Сгруппировать_541" data-name="Сгруппировать 541" transform="translate(408.017 1348.218)">
      <g id="plans">
        <g id="Сгруппировать_536" data-name="Сгруппировать 536" transform="translate(10.146 62.564)">
          <g id="Сгруппировать_535" data-name="Сгруппировать 535">
            <path id="Контур_389" data-name="Контур 389" d="M79.049,84.64l-5.071-5.071a2.536,2.536,0,0,0-3.587,3.587l.743.743H22.507l.743-.743a2.536,2.536,0,0,0-3.587-3.587L14.593,84.64a2.535,2.535,0,0,0,0,3.59L19.664,93.3a2.536,2.536,0,0,0,3.587-3.587l-.743-.743H71.134l-.743.743A2.536,2.536,0,0,0,73.978,93.3l5.071-5.071a2.535,2.535,0,0,0,0-3.59Z" transform="translate(-13.848 -78.826)" fill="#ffc11e"/>
          </g>
        </g>
        <g id="Сгруппировать_538" data-name="Сгруппировать 538" transform="translate(0 0)">
          <g id="Сгруппировать_537" data-name="Сгруппировать 537">
            <path id="Контур_390" data-name="Контур 390" d="M11.954,53.162l-.743.743V8.659l.743.743a2.536,2.536,0,0,0,3.587-3.587L10.468.743a2.536,2.536,0,0,0-3.587,0L1.809,5.816A2.536,2.536,0,0,0,5.4,9.4l.743-.743V53.9L5.4,53.161a2.536,2.536,0,1,0-3.587,3.587l5.073,5.073a2.535,2.535,0,0,0,3.587,0l5.073-5.073a2.536,2.536,0,1,0-3.586-3.586Z" transform="translate(-1.065 0)" fill="#ffc93d"/>
          </g>
        </g>
        <g id="Сгруппировать_540" data-name="Сгруппировать 540" transform="translate(20.291 0)">
          <g id="Сгруппировать_539" data-name="Сгруппировать 539">
            <path id="Контур_391" data-name="Контур 391" d="M69.749,20.291H82.431V2.536A2.537,2.537,0,0,0,79.894,0H45.231V20.291H57.912a2.536,2.536,0,0,1,0,5.073H45.231v7.609a2.536,2.536,0,0,1-5.073,0V0H29.167A2.537,2.537,0,0,0,26.63,2.536V54.955a2.537,2.537,0,0,0,2.536,2.536H40.158V44.809a2.536,2.536,0,0,1,5.073,0V57.491H79.894a2.537,2.537,0,0,0,2.536-2.536V25.364H69.749a2.536,2.536,0,1,1,0-5.073Z" transform="translate(-26.63 0)" fill="#26263e"/>
          </g>
        </g>
      </g>
    </g>
  </g>
</svg>
