<svg xmlns="http://www.w3.org/2000/svg" width="96.283" height="86" viewBox="0 0 96.283 86">
  <path id="Контур_1564" data-name="Контур 1564" d="M94.921,119.439l-7.764-.393V108.6a1.685,1.685,0,0,0-1.1-1.677l-12.787-3.553V89.495a1.764,1.764,0,0,0-.872-1.587L48.685,75.925a1.294,1.294,0,0,0-.543-.129,1.256,1.256,0,0,0-.549.129L23.884,87.907a1.754,1.754,0,0,0-.873,1.587v13.88l-12.787,3.553a1.683,1.683,0,0,0-1.1,1.677v10.442l-7.764.393A1.6,1.6,0,0,0,0,121.156v20.032a1.721,1.721,0,0,0,.969,1.632l46.723,18.889a1.4,1.4,0,0,0,.443.087,1.284,1.284,0,0,0,.455-.087L95.312,142.82a1.722,1.722,0,0,0,.971-1.63V121.156A1.609,1.609,0,0,0,94.921,119.439ZM9.671,136.477a.63.63,0,0,1-.174.447.436.436,0,0,1-.3.129.4.4,0,0,1-.1-.013l-6.815-1.724a.559.559,0,0,1-.377-.562v-3.414a.637.637,0,0,1,.164-.435.427.427,0,0,1,.377-.134l6.816,1.205a.552.552,0,0,1,.4.569v3.93Zm0-7.856a.645.645,0,0,1-.152.422.432.432,0,0,1-.319.149.194.194,0,0,1-.039,0L2.346,128.5a.539.539,0,0,1-.434-.569V124.52a.64.64,0,0,1,.141-.408.419.419,0,0,1,.34-.164l6.816.171a.532.532,0,0,1,.463.571v3.931Zm5.82,4.956a.632.632,0,0,1-.164.435.435.435,0,0,1-.309.142.32.32,0,0,1-.068-.008l-3.065-.542a.55.55,0,0,1-.406-.566v-8.275a.647.647,0,0,1,.141-.41.425.425,0,0,1,.342-.162l3.065.077a.53.53,0,0,1,.463.571v8.738Zm0-13.108a.537.537,0,0,1-.453.574l-3.065.154h-.021a.428.428,0,0,1-.328-.162.639.639,0,0,1-.145-.412v-8.276a.555.555,0,0,1,.4-.566l3.065-.618a.415.415,0,0,1,.383.127.629.629,0,0,1,.168.44v8.74Zm7.291,14.4a.637.637,0,0,1-.164.435.436.436,0,0,1-.309.139c-.023,0-.045,0-.068,0l-3.863-.683a.55.55,0,0,1-.4-.569V124.93a.642.642,0,0,1,.141-.41.415.415,0,0,1,.34-.164l3.863.1a.53.53,0,0,1,.463.571v9.843Zm0-14.77a.531.531,0,0,1-.453.571l-3.863.2h-.021a.437.437,0,0,1-.328-.159.646.646,0,0,1-.145-.415v-9.257a.555.555,0,0,1,.4-.566l3.861-.78a.417.417,0,0,1,.383.129.628.628,0,0,1,.168.437V120.1h0Zm21.989,18.658a.626.626,0,0,1-.164.432.425.425,0,0,1-.309.141c-.022,0-.045,0-.07,0l-17.6-3.115a.55.55,0,0,1-.4-.569V125.136a.642.642,0,0,1,.141-.41.42.42,0,0,1,.34-.164l17.605.447a.53.53,0,0,1,.463.571v13.177h0Zm0-19.769a.531.531,0,0,1-.453.571l-17.6.889h-.018a.426.426,0,0,1-.328-.159.639.639,0,0,1-.145-.412V109.37a.555.555,0,0,1,.4-.566l17.6-3.56a.417.417,0,0,1,.383.129.627.627,0,0,1,.168.437v13.18h0Zm0-19.768a.565.565,0,0,1-.367.561l-17.6,4.894a.5.5,0,0,1-.1.013.421.421,0,0,1-.3-.124.626.626,0,0,1-.178-.45V93.607a.575.575,0,0,1,.315-.539l17.6-7.563a.4.4,0,0,1,.43.072.616.616,0,0,1,.2.469Zm14.467,38.337a.554.554,0,0,1-.4.569l-6.783,1.2a.62.62,0,0,1-.07,0,.419.419,0,0,1-.309-.141.621.621,0,0,1-.164-.432v-13.18a.529.529,0,0,1,.463-.571l6.785-.171a.411.411,0,0,1,.34.161.651.651,0,0,1,.141.41v12.151Zm0-18.225a.63.63,0,0,1-.145.415.439.439,0,0,1-.328.162.066.066,0,0,1-.021,0l-6.785-.343a.534.534,0,0,1-.453-.571v-13.18a.631.631,0,0,1,.168-.437.423.423,0,0,1,.383-.129l6.785,1.371a.554.554,0,0,1,.4.569v12.146Zm0-18.223a.62.62,0,0,1-.178.447.423.423,0,0,1-.295.127.385.385,0,0,1-.107-.015l-6.785-1.886a.561.561,0,0,1-.367-.561V86.044a.615.615,0,0,1,.2-.469.4.4,0,0,1,.43-.072l6.785,2.914a.578.578,0,0,1,.315.542v12.151ZM70.06,135.642a.552.552,0,0,1-.4.569l-5.019.887a.322.322,0,0,1-.068.007.425.425,0,0,1-.309-.142.627.627,0,0,1-.164-.435V125.26a.529.529,0,0,1,.463-.571l5.019-.129a.408.408,0,0,1,.34.164.64.64,0,0,1,.141.41v10.509Zm0-15.761a.628.628,0,0,1-.145.412.428.428,0,0,1-.328.159h-.019l-5.019-.253a.537.537,0,0,1-.455-.574V108.356a.623.623,0,0,1,.168-.437.411.411,0,0,1,.383-.129l5.019,1.014a.553.553,0,0,1,.4.567v10.511Zm0-15.766a.63.63,0,0,1-.178.45.424.424,0,0,1-.295.124.5.5,0,0,1-.1-.013l-5.019-1.4a.564.564,0,0,1-.369-.561V91.45a.622.622,0,0,1,.2-.469.406.406,0,0,1,.43-.072l5.019,2.157a.574.574,0,0,1,.315.539v10.512ZM84.8,133.036a.548.548,0,0,1-.406.566l-10.355,1.831a.672.672,0,0,1-.07,0,.422.422,0,0,1-.31-.139.633.633,0,0,1-.164-.435v-4.921a.546.546,0,0,1,.432-.574l10.355-1.046a.419.419,0,0,1,.359.152.635.635,0,0,1,.154.422v4.139h0Zm0-8.275a.528.528,0,0,1-.463.571l-10.355.263h-.01a.438.438,0,0,1-.332-.162.651.651,0,0,1-.142-.41V120.1a.63.63,0,0,1,.145-.412.431.431,0,0,1,.346-.159l10.355.524a.533.533,0,0,1,.453.571v4.134h0Zm0-8.276a.637.637,0,0,1-.158.427.434.434,0,0,1-.315.149.336.336,0,0,1-.049,0L73.921,115.75a.544.544,0,0,1-.424-.569v-4.921a.631.631,0,0,1,.168-.437.423.423,0,0,1,.383-.129L84.4,111.787a.553.553,0,0,1,.4.567v4.131Zm6.4,19.073a.564.564,0,0,1-.377.562l-2.372.6a.4.4,0,0,1-.4-.117.625.625,0,0,1-.174-.445v-3.834a.548.548,0,0,1,.405-.566l2.372-.42a.421.421,0,0,1,.377.134.633.633,0,0,1,.164.435v3.652Zm0-7.3a.537.537,0,0,1-.434.569l-2.372.241a.191.191,0,0,1-.039,0,.421.421,0,0,1-.319-.152.641.641,0,0,1-.154-.422v-3.833a.532.532,0,0,1,.463-.571l2.372-.06a.417.417,0,0,1,.342.164.639.639,0,0,1,.142.408v3.654Zm4.132,6.258a.559.559,0,0,1-.377.561l-1.975.5a.4.4,0,0,1-.4-.117.624.624,0,0,1-.174-.445v-3.488a.546.546,0,0,1,.405-.566l1.973-.351a.42.42,0,0,1,.379.134.629.629,0,0,1,.164.435v3.336Zm0-6.676a.539.539,0,0,1-.432.569l-1.975.2a.2.2,0,0,1-.039,0,.429.429,0,0,1-.319-.149.646.646,0,0,1-.154-.422v-3.488a.533.533,0,0,1,.463-.574l1.975-.052a.408.408,0,0,1,.34.164.641.641,0,0,1,.141.408v3.344Z" transform="translate(0 -75.796)" fill="#26263e"/>
</svg>
