<svg id="Сгруппировать_654" data-name="Сгруппировать 654" xmlns="http://www.w3.org/2000/svg" width="79.292" height="82.776" viewBox="0 0 79.292 82.776">
  <path id="Контур_1539" data-name="Контур 1539" d="M50.382,18.355a1.589,1.589,0,0,0,2.4,2.082c.247-.285,5.978-7.019,1.632-12.489-2.411-3.035-.629-4.8-.242-5.128A1.588,1.588,0,0,0,52.181.346c-1.665,1.327-3.863,5.036-.255,9.578C54.632,13.328,50.423,18.306,50.382,18.355Z" transform="translate(-41.862 -0.001)" fill="#ffc11e"/>
  <path id="Контур_1540" data-name="Контур 1540" d="M95.88,18.355a1.589,1.589,0,0,0,2.4,2.082c.247-.285,5.978-7.019,1.632-12.489-2.411-3.035-.629-4.8-.242-5.128A1.588,1.588,0,0,0,97.679.346c-1.665,1.327-3.863,5.036-.255,9.578C100.13,13.328,95.921,18.306,95.88,18.355Z" transform="translate(-69.635 -0.001)" fill="#ffc11e"/>
  <path id="Контур_1541" data-name="Контур 1541" d="M141.378,18.355a1.589,1.589,0,0,0,2.4,2.082c.247-.285,5.979-7.019,1.632-12.489-2.41-3.035-.629-4.8-.242-5.128A1.588,1.588,0,0,0,143.177.346c-1.665,1.327-3.863,5.036-.255,9.578C145.629,13.328,141.42,18.306,141.378,18.355Z" transform="translate(-98.816 -0.001)" fill="#ffc11e"/>
  <path id="Контур_1542" data-name="Контур 1542" d="M186.878,18.355a1.589,1.589,0,0,0,2.4,2.082c.247-.285,5.979-7.019,1.633-12.489-2.41-3.035-.629-4.8-.242-5.128A1.588,1.588,0,0,0,188.676.346c-1.665,1.327-3.863,5.036-.255,9.578C191.128,13.328,186.918,18.306,186.878,18.355Z" transform="translate(-127.998 -0.001)" fill="#ffc11e"/>
  <path id="Контур_1543" data-name="Контур 1543" d="M28.19,143.731a4.767,4.767,0,0,0,4.767-4.767V92.546a4.767,4.767,0,1,0-9.534,0v46.418A4.768,4.768,0,0,0,28.19,143.731Z" transform="translate(-23.423 -60.955)" fill="#26263e"/>
  <path id="Контур_1544" data-name="Контур 1544" d="M58.955,92.322V138.74a4.767,4.767,0,1,0,9.534,0V92.322a4.767,4.767,0,1,0-9.534,0Z" transform="translate(-46.101 -60.799)" fill="#26263e"/>
  <path id="Контур_1545" data-name="Контур 1545" d="M99.257,143.284a4.766,4.766,0,0,0,4.767-4.767V92.1a4.767,4.767,0,0,0-9.534,0v46.418A4.768,4.768,0,0,0,99.257,143.284Z" transform="translate(-68.781 -60.644)" fill="#26263e"/>
  <path id="Контур_1546" data-name="Контур 1546" d="M134.787,143.061a4.766,4.766,0,0,0,4.767-4.767V91.876a4.767,4.767,0,0,0-9.534,0v46.418A4.767,4.767,0,0,0,134.787,143.061Z" transform="translate(-91.457 -60.489)" fill="#26263e"/>
  <path id="Контур_1547" data-name="Контур 1547" d="M170.323,142.837a4.766,4.766,0,0,0,4.767-4.767V91.652a4.767,4.767,0,0,0-9.534,0V138.07A4.768,4.768,0,0,0,170.323,142.837Z" transform="translate(-114.138 -60.334)" fill="#26263e"/>
  <path id="Контур_1548" data-name="Контур 1548" d="M201.087,91.429v46.418a4.767,4.767,0,1,0,9.534,0V106.914h.728c2.157,0,3.906-2.726,3.906-6.091s-1.749-6.091-3.906-6.091h-.728v-3.3a4.767,4.767,0,1,0-9.534,0Z" transform="translate(-135.964 -60.179)" fill="#26263e"/>
</svg>
