<svg xmlns="http://www.w3.org/2000/svg" xmlns:xlink="http://www.w3.org/1999/xlink" width="85" height="85" viewBox="0 0 85 85">
  <defs>
    <clipPath id="clip-path">
      <rect id="Прямоугольник_137" data-name="Прямоугольник 137" width="85" height="85" fill="#e9ecf1"/>
    </clipPath>
    <clipPath id="clip-path-2">
      <rect id="Прямоугольник_216" data-name="Прямоугольник 216" width="85" height="85" fill="#e9ecf1" stroke="#707070" stroke-width="1"/>
    </clipPath>
  </defs>
  <g id="Сгруппировать_660" data-name="Сгруппировать 660" transform="translate(-395 -1338)">
    <g id="Группа_масок_26" data-name="Группа масок 26" transform="translate(395 1338)" clip-path="url(#clip-path)">
      <path id="area_1_" data-name="area (1)" d="M71.4,0H32.26a3.022,3.022,0,1,0,0,6.044H71.4a3.022,3.022,0,0,1,3.022,3.022V48.354a3.022,3.022,0,1,0,6.044,0V9.066A9.066,9.066,0,0,0,71.4,0ZM47.522,51.813a3.022,3.022,0,0,0,3.022-3.022V35.34a8.307,8.307,0,0,0-13.6-6.406,8.3,8.3,0,0,0-8.539-1.242,3.019,3.019,0,0,0-5.06,2.227V48.807a3.022,3.022,0,1,0,6.044,0V35.34a2.267,2.267,0,0,1,4.533,0V48.807a3.022,3.022,0,1,0,6.044,0V35.34a2.267,2.267,0,1,1,4.533,0V48.791A3.022,3.022,0,0,0,47.522,51.813ZM61.234,16.319l-.047,0-.047,0A6.983,6.983,0,0,0,54.17,23.3a3.022,3.022,0,1,0,6.044,0,.943.943,0,0,1,.926-.934l.047,0,.047,0a.943.943,0,0,1,.924.872c-.06.221-.523,1.59-3.419,4.776-1.8,1.975-3.561,3.583-3.578,3.6a3.022,3.022,0,0,0,2.031,5.26h8.16a3.022,3.022,0,1,0,0-6.044H64.313C67,27.666,68.2,25.315,68.2,23.3a6.983,6.983,0,0,0-6.97-6.979Zm0,0" transform="translate(-1.362 5.204)" fill="#26263e"/>
    </g>
    <g id="Группа_масок_27" data-name="Группа масок 27" transform="translate(395 1338)" clip-path="url(#clip-path-2)">
      <path id="area_1_2" data-name="area (1)" d="M75.153,60.692a7.564,7.564,0,0,1,0,10.685l-.014.014L69.97,76.5a3.022,3.022,0,1,1-4.247-4.3l3.024-2.987h-48.5A12.1,12.1,0,0,1,8.16,57.119V8.546L5.144,11.521A3.022,3.022,0,0,1,.9,7.218L6.005,2.182a7.616,7.616,0,0,1,10.655,0l5.106,5.037a3.022,3.022,0,0,1-4.245,4.3L14.2,8.248V57.119a6.051,6.051,0,0,0,6.044,6.044H69.054l-3.331-3.289a3.022,3.022,0,1,1,4.247-4.3l5.169,5.105.014.014Z" transform="translate(1.735 5.203)" fill="#ffc11e"/>
    </g>
  </g>
</svg>
