<svg id="Сгруппировать_655" data-name="Сгруппировать 655" xmlns="http://www.w3.org/2000/svg" width="82.542" height="86" viewBox="0 0 82.542 86">
  <path id="Контур_1549" data-name="Контур 1549" d="M278.366,410.2l-6.763,1.08a.432.432,0,0,0-.364.426v9.577a.432.432,0,0,0,.434.434.373.373,0,0,0,.11-.015l6.763-1.777a.431.431,0,0,0,.322-.419v-8.88a.431.431,0,0,0-.5-.426Z" transform="translate(-232.419 -348.876)" fill="#26263e"/>
  <path id="Контур_1550" data-name="Контур 1550" d="M342.531,401.139l-5.456.871a.434.434,0,0,0-.364.427v8.571a.431.431,0,0,0,.168.342.436.436,0,0,0,.263.09.373.373,0,0,0,.11-.015l5.457-1.435a.431.431,0,0,0,.322-.419v-8a.433.433,0,0,0-.5-.428Z" transform="translate(-288.102 -341.167)" fill="#26263e"/>
  <path id="Контур_1551" data-name="Контур 1551" d="M389.89,402.935a.433.433,0,0,0,.264.09.439.439,0,0,0,.11-.015l4.494-1.182a.431.431,0,0,0,.322-.419v-7.29a.431.431,0,0,0-.5-.426l-4.494.717a.431.431,0,0,0-.364.426v7.753A.431.431,0,0,0,389.89,402.935Z" transform="translate(-333.189 -334.833)" fill="#26263e"/>
  <path id="Контур_1552" data-name="Контур 1552" d="M278.432,321.08l-6.763.035a.431.431,0,0,0-.43.432v9.577a.436.436,0,0,0,.434.434.4.4,0,0,0,.046,0l6.763-.73a.432.432,0,0,0,.386-.43v-8.882a.433.433,0,0,0-.126-.306A.466.466,0,0,0,278.432,321.08Z" transform="translate(-232.419 -273.08)" fill="#26263e"/>
  <path id="Контур_1553" data-name="Контур 1553" d="M342.6,320.784l-5.457.028a.433.433,0,0,0-.43.432v8.571a.433.433,0,0,0,.432.434.2.2,0,0,0,.046,0l5.455-.589a.432.432,0,0,0,.386-.43v-8.009a.426.426,0,0,0-.128-.306A.4.4,0,0,0,342.6,320.784Z" transform="translate(-288.103 -272.828)" fill="#26263e"/>
  <path id="Контур_1554" data-name="Контур 1554" d="M390.155,329.183a.4.4,0,0,0,.046,0l4.494-.487a.432.432,0,0,0,.386-.43v-7.29a.427.427,0,0,0-.128-.306.448.448,0,0,0-.306-.126l-4.494.024a.431.431,0,0,0-.43.432v7.753a.434.434,0,0,0,.145.322A.416.416,0,0,0,390.155,329.183Z" transform="translate(-333.19 -272.622)" fill="#26263e"/>
  <path id="Контур_1555" data-name="Контур 1555" d="M278.5,226.225l-6.763-1.01a.433.433,0,0,0-.5.428v9.577a.43.43,0,0,0,.412.432l6.763.313h.02a.431.431,0,0,0,.432-.432v-8.882A.43.43,0,0,0,278.5,226.225Z" transform="translate(-232.421 -191.542)" fill="#26263e"/>
  <path id="Контур_1556" data-name="Контур 1556" d="M336.711,235.41v8.569a.433.433,0,0,0,.412.432l5.455.253h.02a.431.431,0,0,0,.432-.432v-8.007a.434.434,0,0,0-.37-.428l-5.455-.814a.432.432,0,0,0-.346.1A.439.439,0,0,0,336.711,235.41Z" transform="translate(-288.103 -199.849)" fill="#26263e"/>
  <path id="Контур_1557" data-name="Контур 1557" d="M390.125,251.538l4.494.209a.077.077,0,0,0,.02,0,.431.431,0,0,0,.432-.432v-7.29a.434.434,0,0,0-.37-.428l-4.494-.672a.433.433,0,0,0-.5.428v7.753A.432.432,0,0,0,390.125,251.538Z" transform="translate(-333.181 -206.606)" fill="#26263e"/>
  <path id="Контур_1558" data-name="Контур 1558" d="M93.127,33.863l-15.25-3.85L61.764.67c-.007-.013-.016-.026-.026-.038S61.714.593,61.7.573C61.674.534,61.647.5,61.616.459a.381.381,0,0,0-.024-.031c-.006,0-.007-.007-.013-.011a1.232,1.232,0,0,0-.143-.134C61.427.276,61.414.269,61.4.26a1.218,1.218,0,0,0-.128-.086L61.219.143a1.265,1.265,0,0,0-.124-.055L61.039.066a1.306,1.306,0,0,0-.167-.044c-.007,0-.013,0-.02,0A1.361,1.361,0,0,0,60.681,0h-.07a1.333,1.333,0,0,0-.15.009.47.47,0,0,0-.051.007,1.071,1.071,0,0,0-.155.037l-.037.011a1.4,1.4,0,0,0-.189.079l0,0L24.17,18.853a1.3,1.3,0,0,0-.446.382L11.817,35.486a1.3,1.3,0,0,0,1.045,2.064,1.365,1.365,0,0,0,.351-.048l1.683-.474v34a1.3,1.3,0,0,0,.706,1.155L42.35,85.857l.011.005.04.016a1.087,1.087,0,0,0,.128.051l.057.016c.042.011.082.02.124.029.018,0,.035.007.053.009a1.421,1.421,0,0,0,.178.015h0a1.111,1.111,0,0,0,.156-.011.251.251,0,0,1,.037,0,1.1,1.1,0,0,0,.152-.033l.022-.005a.55.55,0,0,0,.079-.026l34.069-12.4,15.8-5.753a1.3,1.3,0,0,0,.855-1.219V35.12A1.3,1.3,0,0,0,93.127,33.863ZM18.3,38.035a.433.433,0,0,1,.344-.423l2.836-.593a.432.432,0,0,1,.52.425v7.274a.433.433,0,0,1-.4.432l-2.834.185h-.029a.434.434,0,0,1-.434-.432V38.035Zm3.7,28.5a.437.437,0,0,1-.185.355.432.432,0,0,1-.247.077.427.427,0,0,1-.15-.028L18.578,65.9a.433.433,0,0,1-.284-.406V58.626a.434.434,0,0,1,.163-.337.427.427,0,0,1,.364-.084l2.834.635a.432.432,0,0,1,.339.421v7.273h0Zm.02-10.908a.431.431,0,0,1-.432.432c-.022,0-.042,0-.064,0l-2.854-.432a.433.433,0,0,1-.368-.428v-6.9a.427.427,0,0,1,.128-.306.417.417,0,0,1,.308-.126l2.854.018a.432.432,0,0,1,.43.432v7.317h0ZM28.82,77.3a.434.434,0,0,1-.432.434.42.42,0,0,1-.2-.048L24.6,75.848a.435.435,0,0,1-.236-.386V59.983a.438.438,0,0,1,.161-.337.427.427,0,0,1,.364-.084l3.59.8a.432.432,0,0,1,.339.421V77.3Zm0-20.642a.428.428,0,0,1-.152.328.433.433,0,0,1-.282.1.387.387,0,0,1-.064-.006L24.7,56.534a.43.43,0,0,1-.368-.426V48.337a.435.435,0,0,1,.126-.306.417.417,0,0,1,.307-.124l3.627.024a.434.434,0,0,1,.43.432v8.295h0Zm0-12.384a.434.434,0,0,1-.4.432l-3.629.234-.029,0a.436.436,0,0,1-.3-.117.442.442,0,0,1-.134-.315V36.774a.431.431,0,0,1,.344-.423l3.627-.759a.432.432,0,0,1,.52.423v8.258h0Zm8.955,28.062a.43.43,0,0,1-.432.432.451.451,0,0,1-.148-.026l-4.8-1.766a.431.431,0,0,1-.282-.406V61.755a.434.434,0,0,1,.161-.339.427.427,0,0,1,.364-.084l4.8,1.076a.431.431,0,0,1,.337.423v9.5Zm0-14.322a.431.431,0,0,1-.432.432.416.416,0,0,1-.066,0l-4.8-.726a.433.433,0,0,1-.368-.427V48.432a.432.432,0,0,1,.126-.306A.419.419,0,0,1,32.54,48l4.8.035a.432.432,0,0,1,.43.432v9.546h0Zm0-14.322a.434.434,0,0,1-.4.432l-4.8.311h-.029A.434.434,0,0,1,32.106,44V35.146a.431.431,0,0,1,.344-.423l4.8-1a.432.432,0,0,1,.52.423v9.55h0Zm37.94,27.7L44.24,82.851V28.189l16.28-24.4,15.2,27.674Zm9.974-8.026a.43.43,0,0,1-.322.417l-4.684,1.23a.448.448,0,0,1-.11.015.432.432,0,0,1-.432-.432V54.825a.432.432,0,0,1,.384-.43l4.684-.507a.434.434,0,0,1,.479.43v9.047Zm0-15.076a.431.431,0,0,1-.43.432l-4.683.024h0a.431.431,0,0,1-.432-.432V38.544a.433.433,0,0,1,.5-.428l4.684.7a.432.432,0,0,1,.368.428v9.047h0Zm6.434,13.387a.437.437,0,0,1-.322.419l-3.678.966a.435.435,0,0,1-.11.015.428.428,0,0,1-.264-.09.434.434,0,0,1-.168-.342V54.1a.432.432,0,0,1,.386-.43l3.678-.4a.434.434,0,0,1,.481.43v7.984Zm0-13.42a.431.431,0,0,1-.43.432l-3.678.018h0a.431.431,0,0,1-.306-.126.437.437,0,0,1-.128-.306V39.656a.433.433,0,0,1,.5-.428l3.678.549a.433.433,0,0,1,.37.428Z" transform="translate(-11.566 0)" fill="#26263e"/>
</svg>
