<svg xmlns="http://www.w3.org/2000/svg" width="74.97" height="54.199" viewBox="0 0 74.97 54.199">
  <g id="hand-shake" transform="translate(0 -68.657)">
    <path id="Контур_1537" data-name="Контур 1537" d="M74.97,75.378V98.072s-4.857.957-5.858,1.083-4.132,1.138-6.4-1.046c-3.5-3.358-15.95-15.736-15.95-15.736s-2.146-2.106-5.592-.286C38,83.754,33.314,86.2,31.355,87.149a4.507,4.507,0,0,1-6.771-3.538c0-1.847,1.153-3.1,2.8-4.023,4.466-2.707,13.879-7.991,17.8-10.074,2.383-1.267,4.1-1.376,7.372,1.38,4.029,3.389,7.615,6.478,7.615,6.478a3.726,3.726,0,0,0,3.035.583C67.786,76.987,74.97,75.378,74.97,75.378ZM25.427,113.831a3.964,3.964,0,0,0-4.755-5.481,4.089,4.089,0,0,0-.863-4.037,4.183,4.183,0,0,0-4-1.012,4.086,4.086,0,0,0-.866-4.031,4.517,4.517,0,0,0-6.324.166c-1.849,1.774-3.033,4.989-1.383,6.881s3.54.737,4.983.408c-.4,1.432-1.6,2.763-.123,4.637s3.54.737,4.985.412c-.4,1.426-1.553,2.892-.129,4.629s3.791.814,5.346.331c-.6,1.543-1.884,3.206-.234,5.069s5.455,1.009,7.315-.766a4.435,4.435,0,0,0,.4-6.269A4.223,4.223,0,0,0,25.427,113.831Zm33.935-11.807C45.918,88.58,52.242,94.906,45.006,87.655a4.713,4.713,0,0,0-5.04-.907c-2.012.882-4.6,2.083-6.551,3a10.809,10.809,0,0,1-4.406,1.466,7.475,7.475,0,0,1-3.95-13.836c2.987-2.067,9.864-5.725,9.864-5.725A8.632,8.632,0,0,0,28.239,69c-4.588,0-14.173,6.279-14.173,6.279a7.491,7.491,0,0,1-6.6.173L0,72.849V98.818s2.133.617,4.05,1.4a8.539,8.539,0,0,1,2.1-3.316c3.18-3.029,8.451-3.06,11.344-.081a7.158,7.158,0,0,1,1.79,3.18,7.245,7.245,0,0,1,3.07,1.872,7.144,7.144,0,0,1,1.793,3.174,7.3,7.3,0,0,1,4.966,5.352,7.35,7.35,0,0,1,3.2,1.92,7.556,7.556,0,0,1,1.982,6.546.012.012,0,0,1,.011.005c.028.037,1.077,1.206,1.731,1.866a3.3,3.3,0,1,0,4.661-4.661c-.046-.046-4.624-4.835-4.256-5.206s6.2,5.7,6.308,5.812a3.293,3.293,0,1,0,4.658-4.658c-.063-.06-.326-.311-.423-.412,0,0-5.783-5.152-5.343-5.592s7.629,6.261,7.641,6.261a3.253,3.253,0,0,0,4.686-4.5c-.023-.069-5.475-5.766-5.049-6.2s5.827,5.121,5.838,5.132a3.3,3.3,0,1,0,4.658-4.663C59.4,102.047,59.379,102.035,59.362,102.024Z" fill="#ffc11e"/>
    <path id="Контур_1538" data-name="Контур 1538" d="M74.97,75.378V98.072s-4.857.957-5.858,1.083-4.132,1.138-6.4-1.046c-3.5-3.358-15.95-15.736-15.95-15.736s-2.146-2.106-5.592-.286C38,83.754,33.314,86.2,31.355,87.149a4.507,4.507,0,0,1-6.771-3.538c0-1.847,1.153-3.1,2.8-4.023,4.466-2.707,13.879-7.991,17.8-10.074,2.383-1.267,4.1-1.376,7.372,1.38,4.029,3.389,7.615,6.478,7.615,6.478a3.726,3.726,0,0,0,3.035.583C67.786,76.987,74.97,75.378,74.97,75.378ZM25.427,113.831a3.964,3.964,0,0,0-4.755-5.481,4.089,4.089,0,0,0-.863-4.037,4.183,4.183,0,0,0-4-1.012,4.086,4.086,0,0,0-.866-4.031,4.517,4.517,0,0,0-6.324.166c-1.849,1.774-3.033,4.989-1.383,6.881s3.54.737,4.983.408c-.4,1.432-1.6,2.763-.123,4.637s3.54.737,4.985.412c-.4,1.426-1.553,2.892-.129,4.629s3.791.814,5.346.331c-.6,1.543-1.884,3.206-.234,5.069s5.455,1.009,7.315-.766a4.435,4.435,0,0,0,.4-6.269A4.223,4.223,0,0,0,25.427,113.831Z"/>
  </g>
</svg>
