<svg xmlns="http://www.w3.org/2000/svg" xmlns:xlink="http://www.w3.org/1999/xlink" width="75.722" height="75.722" viewBox="0 0 75.722 75.722">
  <defs>
    <clipPath id="clip-path">
      <rect id="Прямоугольник_137" data-name="Прямоугольник 137" width="75.722" height="75.722" fill="#e9ecf1" stroke="#707070" stroke-width="1"/>
    </clipPath>
  </defs>
  <g id="Сгруппировать_459" data-name="Сгруппировать 459" transform="translate(-391 -1338)">
    <g id="Группа_масок_29" data-name="Группа масок 29" transform="translate(391 1338)" clip-path="url(#clip-path)">
      <g id="balcony_2_" data-name="balcony (2)">
        <path id="Контур_397" data-name="Контур 397" d="M66.7,85.209V65.687h4.585V61.25H4.437v4.437H9.022V85.209H0v4.437H75.722V85.209Zm-48.805,0H13.458V65.687H17.9Zm8.874,0H22.332V65.687h4.437Zm8.874,0H31.206V65.687h4.437Zm8.874,0H40.079V65.687h4.437Zm8.874,0H48.953V65.687H53.39Zm8.874,0H57.827V65.687h4.437Z" transform="translate(0 -13.924)" fill="#26263e"/>
        <path id="Контур_398" data-name="Контур 398" d="M33.9,14.855h9.452V46.266H33.9Z" transform="translate(-7.705 -3.377)" fill="#ffc11e"/>
        <path id="Контур_399" data-name="Контур 399" d="M51.871,14.855h9.452V46.266H51.871Z" transform="translate(-11.792 -3.377)" fill="#ffc11e"/>
        <path id="Контур_400" data-name="Контур 400" d="M26.082,7.041H58.3V42.889h7.041V0h-46.3V42.889h7.041Z" transform="translate(-4.328)" fill="#26263e"/>
      </g>
    </g>
  </g>
</svg>
