<svg xmlns="http://www.w3.org/2000/svg" width="25.545" height="31.495" viewBox="0 0 25.545 31.495">
  <g id="bookmark" transform="translate(-80.333)">
    <g id="Сгруппировать_582" data-name="Сгруппировать 582" transform="translate(80.333)">
      <path id="Контур_998" data-name="Контур 998" d="M104.788,0H81.424a1.017,1.017,0,0,0-1.091.923v29.65a.935.935,0,0,0,.673.852,1.263,1.263,0,0,0,.417.07,1.2,1.2,0,0,0,.771-.27l10.911-9.231,10.911,9.231a1.239,1.239,0,0,0,1.189.2.935.935,0,0,0,.673-.852V.923A1.017,1.017,0,0,0,104.788,0ZM93.106,19.766a1.2,1.2,0,0,0-.771.27l-9.82,8.308V1.845H103.7v26.5l-9.82-8.308A1.2,1.2,0,0,0,93.106,19.766Z" transform="translate(-80.333)"/>
    </g>
  </g>
</svg>
