<svg id="chat" xmlns="http://www.w3.org/2000/svg" width="27.922" height="27.922" viewBox="0 0 27.922 27.922">
  <g id="Сгруппировать_580" data-name="Сгруппировать 580">
    <path id="Контур_996" data-name="Контур 996" d="M13.961,0A13.977,13.977,0,0,0,0,13.961a13.8,13.8,0,0,0,2.178,7.483L.063,26.725A.872.872,0,0,0,1.2,27.859l5.281-2.115a13.8,13.8,0,0,0,7.483,2.178A13.961,13.961,0,1,0,13.961,0Zm0,26.177a12.043,12.043,0,0,1-6.886-2.131.863.863,0,0,0-.5-.155.873.873,0,0,0-.325.063L2.44,25.482l1.529-3.815a.875.875,0,0,0-.092-.82,12.043,12.043,0,0,1-2.131-6.886A12.216,12.216,0,1,1,13.961,26.177Z"/>
  </g>
</svg>
