<svg xmlns="http://www.w3.org/2000/svg" width="45.104" height="45.104" viewBox="0 0 45.104 45.104">
  <g id="Сгруппировать_660" data-name="Сгруппировать 660" transform="translate(-1084 -871)">
    <rect id="Прямоугольник_105" data-name="Прямоугольник 105" width="45.104" height="45.104" rx="22.552" transform="translate(1084 871)" fill="#ffc11e"/>
    <g id="facebook-logo_1_" data-name="facebook-logo (1)" transform="translate(1078.923 883)">
      <path id="Контур_412" data-name="Контур 412" d="M33.625,0,30.747,0c-3.234,0-5.323,2.144-5.323,5.462V7.981H22.53a.453.453,0,0,0-.453.453v3.649a.453.453,0,0,0,.453.453h2.894v9.208a.452.452,0,0,0,.453.453h3.776a.453.453,0,0,0,.453-.453V12.535h3.384a.452.452,0,0,0,.453-.453V8.434a.453.453,0,0,0-.453-.453H30.1V5.846c0-1.026.245-1.547,1.581-1.547h1.939a.453.453,0,0,0,.452-.453V.457A.453.453,0,0,0,33.625,0Z" transform="translate(0)"/>
    </g>
  </g>
</svg>
