<svg xmlns="http://www.w3.org/2000/svg" xmlns:xlink="http://www.w3.org/1999/xlink" width="82" height="82" viewBox="0 0 82 82">
  <defs>
    <clipPath id="clip-path">
      <circle id="Эллипс_9" data-name="Эллипс 9" cx="41" cy="41" r="41" transform="translate(301 7652)" fill="#fff" stroke="#707070" stroke-width="1" opacity="0.6"/>
    </clipPath>
  </defs>
  <g id="Сгруппировать_619" data-name="Сгруппировать 619" transform="translate(-301 -7450)">
    <circle id="Эллипс_1" data-name="Эллипс 1" cx="41" cy="41" r="41" transform="translate(301 7450)" fill="#26263e"/>
    <g id="Группа_масок_3" data-name="Группа масок 3" transform="translate(0 -202)" clip-path="url(#clip-path)">
      <g id="Nastya" transform="translate(283.905 7662.807)">
        <path id="Контур_178" data-name="Контур 178" d="M50.753,21.392H13.233V71.138h37.52Z" transform="translate(25.451 40.919)" fill="#146864"/>
        <path id="Контур_179" data-name="Контур 179" d="M4.507,29.681c2.224,0,4.026-2.626,4.026-5.865s-1.8-5.865-4.026-5.865S.481,20.576.481,23.816,2.283,29.681,4.507,29.681Z" transform="translate(0.836 34.276)" fill="#ffd8ca"/>
        <path id="Контур_180" data-name="Контур 180" d="M27.324,60.781c-7.432,0-13.51-5.591-13.51-12.424V12.617c0-6.833,6.078-12.424,13.51-12.424s13.51,5.591,13.51,12.424v35.74C40.831,55.2,34.754,60.781,27.324,60.781Z" transform="translate(26.573 0)" fill="#ef790e"/>
        <path id="Контур_181" data-name="Контур 181" d="M11.786,33.819c0-10.3,7.89-18.764,14.053-18.764H42.8c5.334,0,14.053,8.433,14.053,18.764Z" transform="translate(22.658 28.686)" fill="#146864"/>
        <path id="Контур_182" data-name="Контур 182" d="M27.919,35.712c-4.918,0-12.743-5.718-12.743-12.743V14.887c0-4.008,6.2-11.14,13.221-11.14l-.478-1.6A12.757,12.757,0,0,1,40.661,14.887v8.079C40.661,29.995,32.839,35.712,27.919,35.712Z" transform="translate(29.202 3.767)" fill="#ffd8ca"/>
        <path id="Контур_183" data-name="Контур 183" d="M17.867,9.807a1.373,1.373,0,1,0-1.373-1.373A1.372,1.372,0,0,0,17.867,9.807Z" transform="translate(31.747 13.258)" fill="#27273f"/>
        <path id="Контур_184" data-name="Контур 184" d="M20.954,9.807a1.373,1.373,0,1,0-1.372-1.373A1.373,1.373,0,0,0,20.954,9.807Z" transform="translate(37.706 13.258)" fill="#27273f"/>
        <path id="Контур_185" data-name="Контур 185" d="M21.939,12.877c.253-.544-.58-1.467-1.861-2.062s-2.523-.636-2.776-.092.58,1.467,1.861,2.062S21.686,13.421,21.939,12.877Z" transform="translate(33.22 19.587)" fill="#f2a2d6"/>
        <path id="Контур_186" data-name="Контур 186" d="M21.2,12.795c1.28-.595,2.113-1.518,1.861-2.062s-1.5-.5-2.776.092-2.113,1.518-1.861,2.062S19.917,13.39,21.2,12.795Z" transform="translate(35.379 19.605)" fill="#f2a2d6"/>
        <path id="Контур_187" data-name="Контур 187" d="M19.265,12.6c1.112,0,2.013-.558,2.013-1.246s-.9-1.246-2.013-1.246-2.013.558-2.013,1.246S18.153,12.6,19.265,12.6Z" transform="translate(33.209 19.146)" fill="#f2a2d6"/>
        <path id="Контур_188" data-name="Контур 188" d="M20.628,12.6c1.112,0,2.013-.558,2.013-1.246s-.9-1.246-2.013-1.246-2.013.558-2.013,1.246S19.516,12.6,20.628,12.6Z" transform="translate(35.84 19.146)" fill="#f2a2d6"/>
        <path id="Контур_189" data-name="Контур 189" d="M18.973,11.326a.393.393,0,1,0-.478-.384A.439.439,0,0,0,18.973,11.326Z" transform="translate(35.608 20.007)" fill="#f2a2d6"/>
        <path id="Контур_190" data-name="Контур 190" d="M15.85,75.925l5.481-60.863,10.045.059,5.526,60.8Z" transform="translate(30.502 28.701)" fill="#ffda3e"/>
        <path id="Контур_191" data-name="Контур 191" d="M23.1,16.483H18.477V67.127H23.1Z" transform="translate(35.573 31.444)" fill="#e8c325"/>
        <path id="Контур_192" data-name="Контур 192" d="M18.085,13.455a2.506,2.506,0,1,0-2.506-2.506A2.506,2.506,0,0,0,18.085,13.455Z" transform="translate(29.979 15.924)" fill="#f2a2d6" opacity="0.2"/>
        <path id="Контур_193" data-name="Контур 193" d="M22.919,13.455a2.506,2.506,0,1,0-2.506-2.506A2.506,2.506,0,0,0,22.919,13.455Z" transform="translate(39.311 15.924)" fill="#f2a2d6" opacity="0.2"/>
        <path id="Контур_194" data-name="Контур 194" d="M21.782,50.766c-6.255,0-11.544-2.181-15.3-6.311C-.95,36.284.027,23.527.163,22.1l10.517,1-5.257-.5,5.26.484c-.23,2.615-.03,10.284,3.637,14.289,1.745,1.907,4.186,2.831,7.462,2.831A10.025,10.025,0,0,0,29.309,37.3c4.454-4.507,5.334-13.436,5.3-16.5l10.561-.171c.027,1.57.027,15.573-8.3,24.051A20.61,20.61,0,0,1,21.782,50.766Z" transform="translate(0 39.445)" fill="#146864"/>
        <path id="Контур_195" data-name="Контур 195" d="M28.831,35.833H13.237V148.938H28.831Z" transform="translate(25.459 68.794)" fill="#1f2835"/>
        <path id="Контур_196" data-name="Контур 196" d="M36.068,35.833H20.84V148.938H36.068Z" transform="translate(40.135 68.794)" fill="#1f2835"/>
        <path id="Контур_197" data-name="Контур 197" d="M34.148,30.914l3.167,34.624H22.462l1.677-32.794Z" transform="translate(43.266 59.3)" fill="#146864"/>
        <path id="Контур_198" data-name="Контур 198" d="M37.7,33.776H15.738v6.031H37.7Z" transform="translate(30.286 64.823)" fill="#141414"/>
        <path id="Контур_199" data-name="Контур 199" d="M35.657,35.833H16.494V60.125H35.657Z" transform="translate(31.747 68.794)" fill="#1f2835"/>
        <path id="Контур_200" data-name="Контур 200" d="M20.057,34.423a3.155,3.155,0,1,1-1.228,2.5h1.951" transform="translate(36.254 64.805)" fill="none" stroke="#ffa70b" stroke-miterlimit="10" stroke-width="0.897"/>
        <path id="Контур_201" data-name="Контур 201" d="M19.13,34.423a3.155,3.155,0,1,1-1.228,2.5h1.951" transform="translate(34.463 64.805)" fill="none" stroke="#ffa70b" stroke-miterlimit="10" stroke-width="0.897"/>
        <path id="Контур_202" data-name="Контур 202" d="M21.148,15.083l5.526,81.31,1.774-61.887-3.817-4.9,9.118-3.433Z" transform="translate(40.73 28.741)" fill="#14847c"/>
        <path id="Контур_203" data-name="Контур 203" d="M40.02,60.507a41.726,41.726,0,0,1-8.492-.992,69.121,69.121,0,0,1-10.066-2.952l3.879-9.827c6.68,2.621,16,4.262,18.688,2.423.206-.142.637-.437.632-1.981-.071-18.416-12.539-21.4-12.666-21.433l2.3-10.31A25.685,25.685,0,0,1,45.053,21.39c4.613,4.168,10.122,12.02,10.174,25.751.024,5.9-2.836,9.1-5.239,10.745A17.4,17.4,0,0,1,40.02,60.507Z" transform="translate(41.337 29.424)" fill="#146864"/>
        <path id="Контур_204" data-name="Контур 204" d="M19.442,16.981a14.255,14.255,0,0,1,1.792,2.456c1.644,2.429-1.228,2.769-1.55,5.18-.419,3.114,4.33,4.69.576,6.627" transform="translate(37.436 32.406)" fill="none" stroke="#141414" stroke-linejoin="round" stroke-width="1.087"/>
        <path id="Контур_205" data-name="Контур 205" d="M33.8,17.045s-6.653-.422-10.331-2.627c-4.283-2.556-6.178-7.506-3.82-10.762,3.321-4.534,8.9-3.64,11.459-2.108,5.313,3.161,6.178,8.814,6.178,22.262s9.266,18.62,9.266,18.62c6.145,4.215,8.437,11.435,5.115,16.53-3.486,5.366-12.5,7.031-19.343,2.952s-8.92-12.43-5.434-17.8a37.571,37.571,0,0,1,3.731-4.029C29.789,22.482,33.8,17.045,33.8,17.045Z" transform="translate(35.859 0.213)" fill="#ffa70b"/>
        <path id="Контур_206" data-name="Контур 206" d="M41.841,19.443H20.532A1.635,1.635,0,0,0,18.9,21.078V54.2a1.635,1.635,0,0,0,1.635,1.636H41.841A1.635,1.635,0,0,0,43.476,54.2V21.078A1.635,1.635,0,0,0,41.841,19.443Z" transform="translate(36.384 37.156)" fill="#9e9da2"/>
        <path id="Контур_207" data-name="Контур 207" d="M23.868,25.049a1.611,1.611,0,0,1,.714.174.98.98,0,0,0,.856,0,1.771,1.771,0,0,1,1.562,0,1.478,1.478,0,0,1,.275.174c.316.248.319.3.041.59a1.476,1.476,0,0,0,.275,2.361c.142.086.174.159.115.313a4.225,4.225,0,0,1-.8,1.293.885.885,0,0,1-1.125.251,1.662,1.662,0,0,0-1.39,0,.885.885,0,0,1-1.151-.3,4.25,4.25,0,0,1-1.1-2.7,2.034,2.034,0,0,1,.821-1.854,1.556,1.556,0,0,1,.9-.31Z" transform="translate(42.63 47.964)" fill="#c1c1c1"/>
        <path id="Контур_208" data-name="Контур 208" d="M24.519,24.66a1.526,1.526,0,0,1-1.092,1.393c-.313.08-.387,0-.325-.31a1.57,1.57,0,0,1,1.181-1.254C24.46,24.456,24.548,24.491,24.519,24.66Z" transform="translate(44.462 46.875)" fill="#c1c1c1"/>
        <path id="Контур_209" data-name="Контур 209" d="M30.987,34.3c1.262-1.831-.2-5.027-3.26-7.139s-6.569-2.34-7.831-.509.2,5.027,3.26,7.138S29.725,36.133,30.987,34.3Z" transform="translate(37.437 48.69)" fill="#ffd8ca"/>
        <path id="Контур_210" data-name="Контур 210" d="M21.314,76.979,14.4,88.3h-3.61v3.961H22.412l4.664-5.28v5.28h1.7V76.979Z" transform="translate(20.737 148.216)" fill="#ffa28d"/>
        <path id="Контур_211" data-name="Контур 211" d="M28.693,76.979,21.78,88.3H18.17v3.961H29.791l4.664-5.28v5.28h1.7V76.979Z" transform="translate(34.98 148.216)" fill="#ffa28d"/>
        <path id="Контур_212" data-name="Контур 212" d="M26.315,74.432v7.462L19.4,93.214h7.385l6.99-8.539V74.432Z" transform="translate(37.358 143.301)" fill="#ffd8ca"/>
        <path id="Контур_213" data-name="Контур 213" d="M18.936,81.894l-6.913,11.32h7.382l6.99-8.539V74.432H18.936Z" transform="translate(23.115 143.301)" fill="#ffd8ca"/>
        <path id="Контур_214" data-name="Контур 214" d="M16.025,29.953,11.786,72.768H25.408l.174-45.6Z" transform="translate(22.658 52.071)" fill="#146864"/>
        <path id="Контур_215" data-name="Контур 215" d="M25.506,15.056,21.494,96.149l-4.95-63.587,5.124-3.2-7.855-8.088Z" transform="translate(26.573 28.689)" fill="#14847c"/>
        <path id="Контур_216" data-name="Контур 216" d="M22.72,27.031c-2.716,0-4.918-2.657-4.918-5.877V17.417c0-3.226,2.2-5.877,4.918-5.877s4.918,2.657,4.918,5.877v3.737C27.64,24.413,25.438,27.031,22.72,27.031Z" transform="translate(34.271 21.903)" fill="#ffd8ca"/>
        <path id="Контур_217" data-name="Контур 217" d="M22.2,17.8s-4.065-2.9-4.392-.638C17.511,19.252,22.2,17.8,22.2,17.8Z" transform="translate(34.264 31.094)" fill="none" stroke="#141414" stroke-linejoin="round" stroke-width="1.087"/>
        <path id="Контур_218" data-name="Контур 218" d="M19.3,17.8s4.065-2.9,4.392-.638C24,19.252,19.3,17.8,19.3,17.8Z" transform="translate(37.166 31.094)" fill="none" stroke="#141414" stroke-linejoin="round" stroke-width="1.087"/>
        <path id="Контур_219" data-name="Контур 219" d="M21.934,16.794s-1.252.517-1.139,1.452c.165,1.381.475,2.335-1.015,3.268,0,0-2.229.824-.357,3.71s-1.145,3.893-1.145,3.893" transform="translate(35.187 32.045)" fill="none" stroke="#141414" stroke-linejoin="round" stroke-width="1.087"/>
        <path id="Контур_220" data-name="Контур 220" d="M25.641,26.117l-3.879,9.826A69.12,69.12,0,0,0,31.828,38.9a46.637,46.637,0,0,0,6.149.886V29.155A50.124,50.124,0,0,1,25.641,26.117Z" transform="translate(41.916 50.04)" fill="#146864"/>
      </g>
    </g>
  </g>
</svg>
