<svg id="Сгруппировать_482" data-name="Сгруппировать 482" xmlns="http://www.w3.org/2000/svg" width="18.625" height="16.454" viewBox="0 0 18.625 16.454">
  <path id="Контур_17" data-name="Контур 17" d="M17.266,31.452a4.691,4.691,0,0,0-7.49.539,7.142,7.142,0,0,0-.464.752,7.136,7.136,0,0,0-.464-.752,4.691,4.691,0,0,0-7.49-.539A5.646,5.646,0,0,0,0,35.2a6.913,6.913,0,0,0,1.9,4.536A42.391,42.391,0,0,0,6.67,44.191c.721.614,1.466,1.249,2.26,1.944l.024.021a.546.546,0,0,0,.719,0l.024-.021c.793-.694,1.539-1.329,2.26-1.944a42.385,42.385,0,0,0,4.765-4.452,6.913,6.913,0,0,0,1.9-4.536A5.646,5.646,0,0,0,17.266,31.452ZM11.247,43.36c-.621.529-1.261,1.074-1.935,1.66C8.638,44.434,8,43.89,7.377,43.36,3.592,40.134,1.091,38,1.091,35.2a4.556,4.556,0,0,1,1.086-3.028,3.642,3.642,0,0,1,2.77-1.247,3.679,3.679,0,0,1,3.011,1.695,6.469,6.469,0,0,1,.835,1.661.546.546,0,0,0,1.038,0,6.47,6.47,0,0,1,.835-1.661,3.6,3.6,0,0,1,5.781-.448A4.556,4.556,0,0,1,17.534,35.2C17.534,38,15.033,40.134,11.247,43.36Z" transform="translate(0 -29.836)" fill="#fff"/>
</svg>
