<svg xmlns="http://www.w3.org/2000/svg" width="31.101" height="27.67" viewBox="0 0 31.101 27.67">
  <path id="heart" d="M15.55,27.67a1.824,1.824,0,0,1-1.2-.452c-1.256-1.1-2.468-2.131-3.536-3.042l-.005,0a65.769,65.769,0,0,1-7.722-7.248A11.576,11.576,0,0,1,0,9.347,9.721,9.721,0,0,1,2.467,2.708,8.363,8.363,0,0,1,8.688,0a7.823,7.823,0,0,1,4.887,1.687A10,10,0,0,1,15.55,3.75a10,10,0,0,1,1.976-2.063A7.823,7.823,0,0,1,22.413,0a8.363,8.363,0,0,1,6.221,2.708A9.72,9.72,0,0,1,31.1,9.347a11.574,11.574,0,0,1-3.084,7.577A65.761,65.761,0,0,1,20.3,24.171c-1.071.912-2.284,1.946-3.543,3.047a1.825,1.825,0,0,1-1.2.451ZM8.688,1.822A6.561,6.561,0,0,0,3.806,3.943a7.907,7.907,0,0,0-1.985,5.4,9.74,9.74,0,0,0,2.666,6.415,64.721,64.721,0,0,0,7.5,7.023l.006,0c1.073.914,2.289,1.951,3.554,3.057,1.273-1.109,2.491-2.147,3.566-3.063a64.738,64.738,0,0,0,7.5-7.023,9.741,9.741,0,0,0,2.665-6.415,7.907,7.907,0,0,0-1.985-5.4,6.561,6.561,0,0,0-4.882-2.121,6.042,6.042,0,0,0-3.772,1.306,8.84,8.84,0,0,0-2.1,2.433,1.15,1.15,0,0,1-1.976,0,8.832,8.832,0,0,0-2.1-2.433A6.042,6.042,0,0,0,8.688,1.822Zm0,0" transform="translate(0)"/>
</svg>
