<svg xmlns="http://www.w3.org/2000/svg" xmlns:xlink="http://www.w3.org/1999/xlink" width="37" height="37" viewBox="0 0 37 37">
  <defs>
    <linearGradient id="linear-gradient" x1="0.084" y1="0.916" x2="0.916" y2="0.084" gradientUnits="objectBoundingBox">
      <stop offset="0" stop-color="#ffd600"/>
      <stop offset="0.5" stop-color="#ff0100"/>
      <stop offset="1" stop-color="#d800b9"/>
    </linearGradient>
    <linearGradient id="linear-gradient-2" x1="0.146" y1="0.854" x2="0.854" y2="0.146" gradientUnits="objectBoundingBox">
      <stop offset="0" stop-color="#ff6400"/>
      <stop offset="0.5" stop-color="#ff0100"/>
      <stop offset="1" stop-color="#fd0056"/>
    </linearGradient>
    <linearGradient id="linear-gradient-3" x1="0.146" y1="0.854" x2="0.854" y2="0.146" gradientUnits="objectBoundingBox">
      <stop offset="0" stop-color="#f30072"/>
      <stop offset="1" stop-color="#e50097"/>
    </linearGradient>
  </defs>
  <g id="instagram_1_" data-name="instagram (1)" transform="translate(0 0)">
    <path id="Контур_1001" data-name="Контур 1001" d="M36.889,10.873a13.582,13.582,0,0,0-.86-4.491,9.067,9.067,0,0,0-2.134-3.277A9.07,9.07,0,0,0,30.618.971,13.579,13.579,0,0,0,26.127.112C24.155.021,23.524,0,18.5,0s-5.655.021-7.627.111a13.584,13.584,0,0,0-4.491.86A9.067,9.067,0,0,0,3.1,3.105,9.069,9.069,0,0,0,.971,6.382a13.581,13.581,0,0,0-.859,4.491C.021,12.845,0,13.475,0,18.5s.021,5.655.112,7.628a13.579,13.579,0,0,0,.86,4.491,9.066,9.066,0,0,0,2.134,3.277,9.065,9.065,0,0,0,3.277,2.134,13.575,13.575,0,0,0,4.491.86c1.973.09,2.6.111,7.627.111s5.655-.021,7.627-.111a13.576,13.576,0,0,0,4.491-.86,9.458,9.458,0,0,0,5.41-5.41,13.578,13.578,0,0,0,.86-4.491c.09-1.973.111-2.6.111-7.627s-.021-5.655-.111-7.627Zm-3.33,15.1a10.236,10.236,0,0,1-.637,3.435,6.126,6.126,0,0,1-3.511,3.511,10.236,10.236,0,0,1-3.435.637c-1.95.089-2.536.108-7.476.108s-5.525-.019-7.476-.108a10.239,10.239,0,0,1-3.435-.637,5.733,5.733,0,0,1-2.127-1.384,5.731,5.731,0,0,1-1.384-2.127,10.236,10.236,0,0,1-.637-3.435c-.089-1.951-.108-2.536-.108-7.476s.019-5.525.108-7.476a10.243,10.243,0,0,1,.637-3.435A5.736,5.736,0,0,1,5.462,5.462,5.728,5.728,0,0,1,7.589,4.078a10.234,10.234,0,0,1,3.435-.637c1.951-.089,2.536-.108,7.476-.108h0c4.94,0,5.525.019,7.476.108a10.238,10.238,0,0,1,3.435.637,5.736,5.736,0,0,1,2.127,1.384,5.728,5.728,0,0,1,1.384,2.127,10.226,10.226,0,0,1,.637,3.435c.089,1.951.108,2.536.108,7.476s-.019,5.525-.108,7.476Zm0,0" transform="translate(0 0)" fill="url(#linear-gradient)"/>
    <path id="Контур_1002" data-name="Контур 1002" d="M134.509,124.539a9.97,9.97,0,1,0,9.971,9.971A9.97,9.97,0,0,0,134.509,124.539Zm0,16.442a6.472,6.472,0,1,1,6.472-6.472A6.472,6.472,0,0,1,134.509,140.981Zm0,0" transform="translate(-116.01 -116.01)" fill="url(#linear-gradient-2)"/>
    <path id="Контур_1003" data-name="Контур 1003" d="M366.138,90.729a2.1,2.1,0,1,1-2.1-2.1A2.1,2.1,0,0,1,366.138,90.729Zm0,0" transform="translate(-335.588 -82.175)" fill="url(#linear-gradient-3)"/>
  </g>
</svg>
