<svg xmlns="http://www.w3.org/2000/svg" width="43.815" height="45.104" viewBox="0 0 43.815 45.104">
  <g id="Сгруппировать_667" data-name="Сгруппировать 667" transform="translate(-1150 -871)">
    <rect id="Прямоугольник_106" data-name="Прямоугольник 106" width="43.815" height="45.104" rx="21.908" transform="translate(1150 871)" fill="#ffc11e"/>
    <g id="instagram" transform="translate(1162 884)">
      <path id="Контур_406" data-name="Контур 406" d="M9.939,5.9a4.077,4.077,0,1,0,4.077,4.077A4.081,4.081,0,0,0,9.939,5.9Zm0,0a4.077,4.077,0,1,0,4.077,4.077A4.081,4.081,0,0,0,9.939,5.9ZM16.966,0H2.912A2.913,2.913,0,0,0,0,2.912V16.966a2.913,2.913,0,0,0,2.912,2.912H16.966a2.913,2.913,0,0,0,2.912-2.912V2.912A2.913,2.913,0,0,0,16.966,0ZM9.939,15.219A5.241,5.241,0,1,1,15.18,9.978,5.249,5.249,0,0,1,9.939,15.219ZM16.345,4.737A1.165,1.165,0,1,1,17.51,3.572,1.168,1.168,0,0,1,16.345,4.737ZM9.939,5.9a4.077,4.077,0,1,0,4.077,4.077A4.081,4.081,0,0,0,9.939,5.9Zm0,0a4.077,4.077,0,1,0,4.077,4.077A4.081,4.081,0,0,0,9.939,5.9Zm0,0a4.077,4.077,0,1,0,4.077,4.077A4.081,4.081,0,0,0,9.939,5.9Z"/>
    </g>
  </g>
</svg>
