<svg xmlns="http://www.w3.org/2000/svg" xmlns:xlink="http://www.w3.org/1999/xlink" width="28" height="28" viewBox="0 0 28 28">
  <defs>
    <clipPath id="clip-path">
      <rect id="Прямоугольник_218" data-name="Прямоугольник 218" width="28" height="28" transform="translate(1084 618.5)" fill="#e9ecf1" stroke="#707070" stroke-width="1"/>
    </clipPath>
  </defs>
  <g id="Группа_масок_31" data-name="Группа масок 31" transform="translate(-1084 -618.5)" clip-path="url(#clip-path)">
    <g id="email" transform="translate(1084 618.5)">
      <g id="Сгруппировать_659" data-name="Сгруппировать 659">
        <g id="Сгруппировать_547" data-name="Сгруппировать 547">
          <g id="Сгруппировать_546" data-name="Сгруппировать 546">
            <path id="Контур_414" data-name="Контур 414" d="M18.56,14.143,28,20.111V7.924Z"/>
          </g>
        </g>
        <g id="Сгруппировать_549" data-name="Сгруппировать 549">
          <g id="Сгруппировать_548" data-name="Сгруппировать 548">
            <path id="Контур_415" data-name="Контур 415" d="M0,7.924V20.111l9.439-5.968Z"/>
          </g>
        </g>
        <g id="Сгруппировать_551" data-name="Сгруппировать 551">
          <g id="Сгруппировать_550" data-name="Сгруппировать 550">
            <path id="Контур_416" data-name="Контур 416" d="M26.25,4.375H1.75a1.728,1.728,0,0,0-1.7,1.489L14,15.054,27.947,5.864A1.728,1.728,0,0,0,26.25,4.375Z"/>
          </g>
        </g>
        <g id="Сгруппировать_553" data-name="Сгруппировать 553">
          <g id="Сгруппировать_552" data-name="Сгруппировать 552">
            <path id="Контур_417" data-name="Контур 417" d="M16.957,15.2l-2.476,1.631a.879.879,0,0,1-.962,0L11.042,15.2.056,22.148A1.725,1.725,0,0,0,1.75,23.625h24.5a1.725,1.725,0,0,0,1.694-1.477Z"/>
          </g>
        </g>
      </g>
    </g>
  </g>
</svg>
