<svg xmlns="http://www.w3.org/2000/svg" width="45.104" height="45.104" viewBox="0 0 45.104 45.104">
  <g id="Сгруппировать_662" data-name="Сгруппировать 662" transform="translate(-1084 -815)">
    <rect id="Прямоугольник_102" data-name="Прямоугольник 102" width="45.104" height="45.104" rx="22.552" transform="translate(1084 815)" fill="#ffc11e"/>
    <g id="messenger" transform="translate(1094 825)">
      <g id="Сгруппировать_545" data-name="Сгруппировать 545" transform="translate(0)">
        <path id="Контур_413" data-name="Контур 413" d="M12.506,0C5.6,0,0,5.3,0,11.834A11.586,11.586,0,0,0,4.66,21.05v4.514l4.258-2.389a13.178,13.178,0,0,0,3.588.5c6.907,0,12.506-5.3,12.506-11.834S19.413,0,12.506,0Zm1.243,15.937-3.184-3.472L4.351,15.937l6.836-7.417,3.263,3.472,6.136-3.472Z" transform="translate(0)"/>
      </g>
    </g>
  </g>
</svg>
