<svg xmlns="http://www.w3.org/2000/svg" width="33.728" height="33.728" viewBox="0 0 33.728 33.728">
  <g id="send_1_" data-name="send (1)" transform="matrix(0.966, 0.259, -0.259, 0.966, 7.127, -0.001)">
    <g id="Сгруппировать_581" data-name="Сгруппировать 581" transform="translate(0 0.001)">
      <path id="Контур_997" data-name="Контур 997" d="M27.3.237a.807.807,0,0,0-.87-.179L.508,10.429A.807.807,0,0,0,.455,11.9l10.223,4.958,4.958,10.223a.807.807,0,0,0,.726.455h.029a.807.807,0,0,0,.72-.507L27.482,1.107A.807.807,0,0,0,27.3.237ZM2.8,11.249l20.58-8.232L11.118,15.281ZM16.292,24.738l-4.033-8.315L24.524,4.157Z" transform="translate(0 -0.001)"/>
    </g>
  </g>
</svg>
