<svg xmlns="http://www.w3.org/2000/svg" width="68" height="68" viewBox="0 0 68 68">
  <g id="Сгруппировать_611" data-name="Сгруппировать 611" transform="translate(-1799.287 -555.514)">
    <rect id="Прямоугольник_3" data-name="Прямоугольник 3" width="68" height="68" rx="34" transform="translate(1799.287 555.514)" fill="#039be5"/>
    <path id="telegram" d="M15.038,24.153,14.4,33.538a2.181,2.181,0,0,0,1.771-.9l4.253-4.277L29.24,35.15c1.616.948,2.755.449,3.191-1.565L38.215,5.061l0,0c.513-2.514-.864-3.5-2.439-2.881l-34,13.7c-2.32.948-2.285,2.309-.394,2.926l8.692,2.845,20.19-13.3c.95-.662,1.814-.3,1.1.366Z" transform="translate(1811.418 571.392)" fill="#fff"/>
  </g>
</svg>
