<svg xmlns="http://www.w3.org/2000/svg" width="45.104" height="45.104" viewBox="0 0 45.104 45.104">
  <g id="Сгруппировать_660" data-name="Сгруппировать 660" transform="translate(-1279 -815)">
    <rect id="Прямоугольник_346" data-name="Прямоугольник 346" width="45.104" height="45.104" rx="22.552" transform="translate(1279 815)" fill="#ffc11e"/>
    <g id="tik-tok" transform="translate(1258.794 823.61)">
      <path id="Контур_1535" data-name="Контур 1535" d="M54.062,6.845a6.5,6.5,0,0,1-3.925-1.312A6.5,6.5,0,0,1,47.542.39h-4.21v11.5l-.005,6.3a3.816,3.816,0,1,1-2.617-3.616V10.3a8.284,8.284,0,0,0-1.214-.09,8.072,8.072,0,0,0-6.066,2.713,7.911,7.911,0,0,0,.357,10.908,8.213,8.213,0,0,0,.761.664A8.073,8.073,0,0,0,39.5,26.172a8.284,8.284,0,0,0,1.214-.089A8.045,8.045,0,0,0,45.2,23.835a7.881,7.881,0,0,0,2.364-5.609l-.022-9.409a10.667,10.667,0,0,0,6.527,2.218V6.844s-.011,0-.012,0Z" transform="translate(0)"/>
    </g>
  </g>
</svg>
