<svg xmlns="http://www.w3.org/2000/svg" width="68" height="70" viewBox="0 0 68 70">
  <g id="Сгруппировать_611" data-name="Сгруппировать 611" transform="translate(-1799.287 -649.514)">
    <rect id="Прямоугольник_4" data-name="Прямоугольник 4" width="68" height="70" rx="34" transform="translate(1799.287 649.514)" fill="#7d3daf"/>
    <g id="viber" transform="translate(1813.634 662.608)">
      <path id="Контур_977" data-name="Контур 977" d="M41.038,25.313c1.3-10.977-.627-17.906-4.109-21.041l0,0c-5.62-5.353-24.6-6.145-31.325.24-3.02,3.123-4.083,7.707-4.2,13.382S1.151,34.2,11.06,37.089h.009l-.009,4.406s-.067,1.785,1.073,2.144c1.3.423,1.894-.406,5.95-5.251a37.114,37.114,0,0,0,12.583-.956c1.37-.459,9.119-1.484,10.372-12.118ZM18.751,35.288s-4.293,5.353-5.628,6.742c-.437.452-.916.41-.909-.486,0-.588.033-7.314.033-7.314-8.4-2.408-7.906-11.463-7.815-16.2S5.391,9.41,7.948,6.8c5.9-5.531,22.54-4.294,26.779-.31,5.183,4.595,3.338,17.577,3.349,18.019-1.065,8.877-7.345,9.439-8.5,9.824a34.241,34.241,0,0,1-10.825.958Z" transform="translate(-1.38 0.013)" fill="#fff"/>
      <path id="Контур_978" data-name="Контур 978" d="M12.459,4.3a.552.552,0,0,0,0,1.1c5.44.042,9.92,3.834,9.969,10.789a.533.533,0,1,0,1.065-.009h0C23.434,8.684,18.542,4.339,12.459,4.3Z" transform="translate(7.287 3.553)" fill="#fff"/>
      <path id="Контур_979" data-name="Контур 979" d="M19.193,13.742a.533.533,0,1,0,1.065.025,7.376,7.376,0,0,0-7.247-7.9.553.553,0,0,0-.075,1.1c4.152.315,6.34,3.149,6.256,6.768Z" transform="translate(7.709 4.846)" fill="#fff"/>
      <path id="Контур_980" data-name="Контур 980" d="M23.152,19.166a1.683,1.683,0,0,0-2.195.315l-.792,1.025a1.417,1.417,0,0,1-1.155.452c-5.489-1.452-6.957-7.2-6.957-7.2a1.531,1.531,0,0,1,.435-1.195l.991-.82a1.825,1.825,0,0,0,.3-2.271A23.668,23.668,0,0,0,11.07,5.558,1.466,1.466,0,0,0,9.1,5.225H9.083c-1.575.922-3.3,2.646-2.748,4.422.942,1.872,2.672,7.84,8.186,12.35a31.481,31.481,0,0,0,8.434,4.823l.016.025c1.716.572,3.384-1.22,4.274-2.843v-.013a1.561,1.561,0,0,0-.313-2.014,21.471,21.471,0,0,0-3.781-2.808Z" transform="translate(2.603 4.122)" fill="#fff"/>
      <path id="Контур_981" data-name="Контур 981" d="M13.395,8.6c1.75.1,2.6,1.016,2.69,2.894a.534.534,0,1,0,1.065-.051c-.117-2.451-1.4-3.817-3.7-3.945a.552.552,0,0,0-.058,1.1Z" transform="translate(8.076 6.182)" fill="#fff"/>
    </g>
  </g>
</svg>
