<svg xmlns="http://www.w3.org/2000/svg" width="45.104" height="45.104" viewBox="0 0 45.104 45.104">
  <g id="Сгруппировать_664" data-name="Сгруппировать 664" transform="translate(-1214 -815)">
    <rect id="Прямоугольник_104" data-name="Прямоугольник 104" width="45.104" height="45.104" rx="22.552" transform="translate(1214 815)" fill="#ffc11e"/>
    <g id="viber" transform="translate(1223.62 825.013)">
      <path id="Контур_407" data-name="Контур 407" d="M23.647,14.207C24.379,8.044,23.3,4.153,21.34,2.393h0C18.185-.613,7.528-1.058,3.752,2.527c-1.7,1.754-2.293,4.328-2.358,7.514S1.251,19.2,6.815,20.819H6.82l-.005,2.474s-.038,1,.6,1.2c.732.237,1.063-.228,3.341-2.948a20.839,20.839,0,0,0,7.065-.537c.769-.258,5.12-.833,5.824-6.8Zm-12.513,5.6s-2.41,3.005-3.16,3.786c-.245.254-.514.23-.51-.273,0-.33.018-4.107.018-4.107-4.717-1.352-4.439-6.436-4.388-9.1s.538-4.84,1.974-6.307C8.38.7,17.723,1.4,20.1,3.637c2.91,2.58,1.874,9.869,1.881,10.118-.6,4.984-4.124,5.3-4.772,5.516a19.226,19.226,0,0,1-6.078.538Z" transform="translate(0 0)"/>
      <path id="Контур_408" data-name="Контур 408" d="M12.229,4.3a.31.31,0,0,0,0,.619c3.054.024,5.57,2.153,5.6,6.058a.3.3,0,1,0,.6-.005h0C18.391,6.76,15.644,4.321,12.229,4.3Z" transform="translate(0.238 0.097)"/>
      <path id="Контур_409" data-name="Контур 409" d="M16.235,10.291a.3.3,0,1,0,.6.014,4.142,4.142,0,0,0-4.069-4.433.31.31,0,0,0-.042.619,3.53,3.53,0,0,1,3.513,3.8Z" transform="translate(0.25 0.133)"/>
      <path id="Контур_410" data-name="Контур 410" d="M15.731,12.95a.945.945,0,0,0-1.232.177l-.445.576a.8.8,0,0,1-.648.254A5.935,5.935,0,0,1,9.5,9.916a.86.86,0,0,1,.244-.671l.556-.46a1.024,1.024,0,0,0,.171-1.275,13.289,13.289,0,0,0-1.524-2.2.823.823,0,0,0-1.106-.187H7.831C6.947,5.639,5.978,6.608,6.288,7.6c.529,1.051,1.5,4.4,4.6,6.934a17.676,17.676,0,0,0,4.736,2.708l.009.014c.963.321,1.9-.685,2.4-1.6v-.007a.877.877,0,0,0-.176-1.131,12.056,12.056,0,0,0-2.123-1.577Z" transform="translate(0.11 0.113)"/>
      <path id="Контур_411" data-name="Контур 411" d="M13.175,8.118c.983.057,1.459.571,1.51,1.625a.3.3,0,1,0,.6-.029A2.053,2.053,0,0,0,13.208,7.5a.31.31,0,0,0-.033.619Z" transform="translate(0.26 0.17)"/>
    </g>
  </g>
</svg>
