<svg xmlns="http://www.w3.org/2000/svg" xmlns:xlink="http://www.w3.org/1999/xlink" width="31" height="31" viewBox="0 0 31 31">
  <defs>
    <clipPath id="clip-path">
      <rect id="Прямоугольник_161" data-name="Прямоугольник 161" width="31" height="31" stroke="#707070" stroke-width="1"/>
    </clipPath>
  </defs>
  <g id="Группа_масок_24" data-name="Группа масок 24" clip-path="url(#clip-path)">
    <g id="viber" transform="translate(1.304 0)">
      <path id="Контур_378" data-name="Контур 378" d="M30.338,17.922c.924-7.777-.444-12.687-2.911-14.907h0C23.446-.779,10-1.34,5.234,3.184,3.095,5.4,2.341,8.645,2.259,12.666s-.181,11.556,6.84,13.6h.006L9.1,29.387s-.048,1.265.76,1.519c.924.3,1.342-.288,4.216-3.72a26.3,26.3,0,0,0,8.915-.677c.97-.325,6.461-1.052,7.349-8.586ZM14.548,24.99s-3.041,3.792-3.987,4.777c-.31.32-.649.29-.644-.345,0-.417.023-5.182.023-5.182-5.952-1.706-5.6-8.121-5.537-11.478S5.082,6.655,6.893,4.8C11.073.885,22.863,1.761,25.867,4.584c3.672,3.256,2.365,12.453,2.373,12.767-.755,6.289-5.2,6.688-6.022,6.96a24.26,24.26,0,0,1-7.67.679Z" transform="translate(-2.24 0.021)"/>
      <path id="Контур_379" data-name="Контур 379" d="M19.747,6.976a.391.391,0,0,0,0,.781c3.854.03,7.029,2.716,7.063,7.644a.378.378,0,1,0,.755-.006h0c-.041-5.31-3.507-8.389-7.817-8.418Z" transform="translate(-5.757 -1.415)"/>
      <path id="Контур_380" data-name="Контур 380" d="M24.988,15.109a.378.378,0,1,0,.755.018,5.226,5.226,0,0,0-5.134-5.594.392.392,0,0,0-.053.781,4.455,4.455,0,0,1,4.432,4.795Z" transform="translate(-5.928 -1.939)"/>
      <path id="Контур_381" data-name="Контур 381" d="M22.1,18.146a1.192,1.192,0,0,0-1.555.223l-.561.726a1,1,0,0,1-.818.32c-3.889-1.028-4.929-5.1-4.929-5.1a1.085,1.085,0,0,1,.308-.846l.7-.581a1.293,1.293,0,0,0,.215-1.609A16.769,16.769,0,0,0,13.543,8.5a1.039,1.039,0,0,0-1.4-.236h-.012c-1.116.653-2.338,1.875-1.947,3.133.667,1.326,1.893,5.555,5.8,8.75a22.3,22.3,0,0,0,5.976,3.417l.012.018c1.216.405,2.4-.865,3.028-2.014v-.009a1.106,1.106,0,0,0-.222-1.427,15.212,15.212,0,0,0-2.679-1.99Z" transform="translate(-3.856 -1.646)"/>
      <path id="Контур_382" data-name="Контур 382" d="M21.289,12.956c1.24.072,1.841.72,1.906,2.05a.378.378,0,1,0,.755-.036,2.59,2.59,0,0,0-2.619-2.795.391.391,0,0,0-.041.781Z" transform="translate(-6.077 -2.482)"/>
    </g>
  </g>
</svg>
