<svg xmlns="http://www.w3.org/2000/svg" width="45.104" height="45.104" viewBox="0 0 45.104 45.104">
  <g id="Сгруппировать_659" data-name="Сгруппировать 659" transform="translate(-1214 -871)">
    <rect id="Прямоугольник_107" data-name="Прямоугольник 107" width="45.104" height="45.104" rx="22.552" transform="translate(1214 871)" fill="#ffc11e"/>
    <path id="youtube" d="M22.849-3.526a2.923,2.923,0,0,0-2.056-2.056c-1.826-.5-9.128-.5-9.128-.5s-7.3,0-9.128.481A2.982,2.982,0,0,0,.481-3.526,30.8,30.8,0,0,0,0,2.085,30.682,30.682,0,0,0,.481,7.7,2.923,2.923,0,0,0,2.537,9.752c1.845.5,9.128.5,9.128.5s7.3,0,9.128-.481a2.923,2.923,0,0,0,2.056-2.056,30.805,30.805,0,0,0,.48-5.611,29.233,29.233,0,0,0-.481-5.63ZM9.34,5.582V-1.412l6.072,3.5Zm0,0" transform="translate(1224.999 892.082)"/>
  </g>
</svg>
