<svg id="youtube_1_" data-name="youtube (1)" xmlns="http://www.w3.org/2000/svg" width="53.27" height="37.297" viewBox="0 0 53.27 37.297">
  <path id="Контур_999" data-name="Контур 999" d="M52.172,5.836a6.674,6.674,0,0,0-4.695-4.7C43.309,0,26.634,0,26.634,0S9.96,0,5.792,1.1A6.81,6.81,0,0,0,1.1,5.836C0,10,0,18.649,0,18.649s0,8.688,1.1,12.813a6.675,6.675,0,0,0,4.7,4.7C10,37.3,26.635,37.3,26.635,37.3s16.674,0,20.842-1.1a6.674,6.674,0,0,0,4.7-4.695c1.1-4.169,1.1-12.813,1.1-12.813s.044-8.688-1.1-12.856Zm0,0" transform="translate(0 0)" fill="red"/>
  <path id="Контур_1000" data-name="Контур 1000" d="M204.969,118.456l13.866-7.986-13.866-7.986Zm0,0" transform="translate(-183.644 -91.822)" fill="#fff"/>
</svg>
